<svg width="20" height="33" viewBox="0 0 20 33" fill="none" xmlns="http://www.w3.org/2000/svg">
<path d="M0 23.0967C4.97273 23.0967 9.00393 27.1279 9.00393 32.1006C4.0312 32.1006 0 28.0694 0 23.0967Z" fill="#D91550"/>
<path d="M0 15.6589C4.97273 15.6589 9.00393 19.6901 9.00393 24.6629C4.0312 24.6629 0 20.6317 0 15.6589Z" fill="#D91550"/>
<path d="M0 8.22095C4.97273 8.22095 9.00393 12.2521 9.00393 17.2249C4.0312 17.2249 0 13.1937 0 8.22095Z" fill="#D91550"/>
<path d="M19.1816 23.0969C14.2089 23.0969 10.1777 27.1281 10.1777 32.1009C15.1504 32.1009 19.1816 28.0697 19.1816 23.0969Z" fill="#D91550"/>
<path d="M19.1821 15.6589C14.2094 15.6589 10.1782 19.6901 10.1782 24.6629C15.1509 24.6629 19.1821 20.6317 19.1821 15.6589Z" fill="#D91550"/>
<path d="M19.1821 8.22095C14.2094 8.22095 10.1782 12.2521 10.1782 17.2249C15.1509 17.2249 19.1821 13.1937 19.1821 8.22095Z" fill="#D91550"/>
<path d="M9.61646 0C5.84721 3.76924 5.7956 9.932 9.56485 13.7012C13.3341 9.932 13.3857 3.76924 9.61646 0Z" fill="#D91550"/>
</svg>
