<svg width="31" height="32" viewBox="0 0 31 32" fill="none" xmlns="http://www.w3.org/2000/svg">
<circle cx="1.5" cy="23.5" r="0.5" fill="#D91550"/>
<circle cx="30" cy="6" r="1" fill="#D91550"/>
<circle cx="28" cy="27" r="1" fill="#D91550"/>
<circle cx="2.5" cy="25.5" r="0.5" fill="#D91550"/>
<circle cx="13.5" cy="0.5" r="0.5" fill="#D91550"/>
<circle cx="27.5" cy="5.5" r="0.5" fill="#D91550"/>
<circle cx="29.5" cy="25.5" r="0.5" fill="#D91550"/>
<circle cx="0.5" cy="8.5" r="0.5" fill="#D91550"/>
<path fill-rule="evenodd" clip-rule="evenodd" d="M16 0L29.3851 7.72792L16 14.8667L2.61481 7.72792L15.0055 0.574173C15.0413 0.81514 15.2491 1 15.5 1C15.7761 1 16 0.776142 16 0.5C16 0.341622 15.9264 0.200443 15.8115 0.108832L16 0ZM2.14355 8.60992L16 16L16 32L2.14355 24V8.60992ZM17 31.4226L29.8564 24V8.60992L17 15.4667V31.4226ZM4 10.5C4 10.7761 3.77614 11 3.5 11C3.22386 11 3 10.7761 3 10.5C3 10.2239 3.22386 10 3.5 10C3.77614 10 4 10.2239 4 10.5ZM4.5 12C4.77614 12 5 11.7761 5 11.5C5 11.2239 4.77614 11 4.5 11C4.22386 11 4 11.2239 4 11.5C4 11.7761 4.22386 12 4.5 12ZM15 29.5C15 29.7761 14.7761 30 14.5 30C14.2239 30 14 29.7761 14 29.5C14 29.2239 14.2239 29 14.5 29C14.7761 29 15 29.2239 15 29.5ZM13.5 29C13.7761 29 14 28.7761 14 28.5C14 28.2239 13.7761 28 13.5 28C13.2239 28 13 28.2239 13 28.5C13 28.7761 13.2239 29 13.5 29ZM27 7.5C27 7.77614 26.7761 8 26.5 8C26.2239 8 26 7.77614 26 7.5C26 7.22386 26.2239 7 26.5 7C26.7761 7 27 7.22386 27 7.5ZM19 16.5C19 16.7761 18.7761 17 18.5 17C18.2239 17 18 16.7761 18 16.5C18 16.2239 18.2239 16 18.5 16C18.7761 16 19 16.2239 19 16.5ZM28.5 17C28.7761 17 29 16.7761 29 16.5C29 16.2239 28.7761 16 28.5 16C28.2239 16 28 16.2239 28 16.5C28 16.7761 28.2239 17 28.5 17Z" fill="#D91550"/>
</svg>
