<svg width="26" height="35" viewBox="0 0 26 35" fill="none" xmlns="http://www.w3.org/2000/svg">
<path fill-rule="evenodd" clip-rule="evenodd" d="M9.28287 10.7451C9.33077 11.2457 9.33379 11.9191 9.25145 12.6842C9.97074 13.2331 10.7407 13.7709 11.5456 14.2683C12.8201 15.0558 14.1649 15.7311 15.522 16.1924C16.1274 15.1622 16.782 14.2193 17.3924 13.4563C17.7334 13.03 18.057 12.3205 18.3482 11.3992C18.5509 10.758 18.7312 10.0367 18.8899 9.2771C15.6948 8.51322 13.1146 7.01686 11.2531 5.5236C9.75674 7.69714 9.28977 9.69525 9.28287 10.7451ZM10.4866 4.87431C8.82458 7.25383 8.2828 9.49708 8.2828 10.7686V10.7936L8.28528 10.8184C8.31501 11.1157 8.32662 11.4966 8.30668 11.9342C7.63478 11.3799 7.02106 10.8279 6.48148 10.3079C6.56622 9.432 6.76997 8.53865 7.10224 7.65594C7.63403 6.24318 8.46176 4.94605 9.46085 3.87666C9.76268 4.19726 10.105 4.53284 10.4866 4.87431ZM11.0879 4.07097C10.7483 3.76394 10.4436 3.4634 10.175 3.17713C11.4009 2.07978 12.8139 1.31444 14.2271 1.04917C12.9364 2.02127 11.9049 3.04999 11.0879 4.07097ZM11.849 4.72015C12.8542 3.45833 14.2194 2.16999 16.0512 1C16.3978 1.05036 16.7393 1.13695 17.0727 1.26244C18.1625 1.67268 19.0431 2.45236 19.698 3.46293C19.5825 4.85886 19.3817 6.61257 19.0802 8.29397C16.044 7.5599 13.5989 6.12946 11.849 4.72015ZM20.0624 8.48203C20.2605 7.37959 20.4158 6.24858 20.5329 5.20311C20.8971 6.26416 21.0821 7.44688 21.0769 8.65849C20.7312 8.61541 20.3918 8.56292 20.0588 8.50186L20.0624 8.48203ZM19.8683 9.48383C20.2475 9.55353 20.6345 9.6127 21.0294 9.66023C20.938 10.6698 20.7144 11.6818 20.3524 12.6436C19.7277 14.303 18.7369 15.6912 17.5503 16.7095C17.2041 16.6525 16.8568 16.5782 16.5094 16.4884C17.0534 15.5841 17.6326 14.7568 18.1732 14.081C18.6322 13.5073 19.0003 12.6543 19.3017 11.7006C19.5164 11.0214 19.7045 10.2673 19.8683 9.48383ZM15.9961 17.3858C16.2232 17.4493 16.4511 17.5069 16.6794 17.5582C16.3836 18.0458 16.1335 18.6047 15.9398 19.2707C15.6416 19.3002 15.3425 19.3402 15.0434 19.3914C15.1246 19.1902 15.2108 18.9881 15.3016 18.7857C15.5138 18.3123 15.748 17.8429 15.9961 17.3858ZM13.8749 19.6507C14.0277 19.222 14.2013 18.7954 14.389 18.3766C14.5856 17.9382 14.7998 17.5037 15.0258 17.0788C13.6298 16.5864 12.2752 15.8946 11.02 15.119C10.3454 14.7022 9.69499 14.2583 9.07708 13.8032C9.02168 14.0738 8.95529 14.3502 8.87651 14.6294C8.43744 16.1857 7.60378 17.8663 6.10819 19.1483C5.78793 19.4228 5.47885 19.8001 5.18321 20.2656C6.13002 21.0238 7.21732 21.8011 8.41307 22.524C9.537 21.5601 11.002 20.708 12.7143 20.0362C13.0981 19.8855 13.4856 19.7576 13.8749 19.6507ZM7.66298 23.2376C6.57415 22.5656 5.57509 21.8522 4.68866 21.1501C4.59179 21.3449 4.49669 21.5492 4.40347 21.7626C3.89156 22.9341 3.4558 24.3299 3.09303 25.7893C2.95399 26.3486 2.82612 26.9154 2.70908 27.4802C3.9268 28.2442 5.30834 29.0512 6.75064 29.7999C6.91135 29.8833 7.07263 29.9659 7.23434 30.0475C6.81132 29.6185 6.47943 29.1203 6.2585 28.5572C5.53978 26.7256 6.13606 24.8594 7.66298 23.2376ZM9.78299 32.3118C10.0071 32.4026 10.2312 32.4905 10.4547 32.575C9.96505 32.8959 9.46008 33.1656 8.94904 33.3747C9.22466 33.0301 9.50404 32.6745 9.78299 32.3118ZM8.83051 31.9091C8.30616 32.5854 7.78275 33.2341 7.28916 33.8279C6.47321 33.936 5.66715 33.8658 4.90818 33.5801C3.69923 33.125 2.76103 32.18 2.10725 30.9576C2.21607 30.1874 2.34764 29.3676 2.50308 28.5301C3.66082 29.2466 4.94929 29.9916 6.28995 30.6874C7.11853 31.1175 7.97189 31.5314 8.83051 31.9091ZM1.59395 27.9565C1.51916 28.3435 1.44938 28.7278 1.38449 29.1063C1.2561 28.632 1.15954 28.1381 1.0953 27.6323C1.25755 27.7389 1.42387 27.8471 1.59395 27.9565ZM1.80872 26.9041C1.5277 26.7208 1.25851 26.5417 1.00273 26.3685C0.970954 24.8554 1.21603 23.2947 1.75011 21.8758C2.05757 21.059 2.45378 20.3079 2.91837 19.6343C3.22133 19.9155 3.54803 20.2059 3.89668 20.5013C3.7535 20.7766 3.61712 21.0647 3.48713 21.3622C2.94487 22.6032 2.49313 24.0573 2.12256 25.548C2.01091 25.9972 1.90636 26.4507 1.80872 26.9041ZM4.4078 19.623C4.09508 19.3547 3.80195 19.0917 3.52995 18.8374C3.96733 18.3244 4.44749 17.8701 4.95816 17.4817C5.74951 16.5166 6.40963 15.3385 6.61035 13.0444C6.5198 12.5906 6.46375 12.1217 6.4439 11.6426C6.9752 12.1264 7.55892 12.6258 8.18476 13.1215C8.12199 13.5172 8.03382 13.9335 7.91408 14.3579C7.51148 15.7849 6.76181 17.2709 5.4574 18.389C5.07608 18.7159 4.72731 19.1361 4.4078 19.623Z" fill="#D91550"/>
<path d="M9.25145 12.6842L9.07979 12.6657L9.06938 12.7624L9.14671 12.8214L9.25145 12.6842ZM9.28287 10.7451L9.11022 10.7439L9.11016 10.7527L9.111 10.7615L9.28287 10.7451ZM11.5456 14.2683L11.4549 14.4152L11.5456 14.2683ZM15.522 16.1924L15.4665 16.3559L15.5996 16.4011L15.6709 16.2799L15.522 16.1924ZM17.3924 13.4563L17.2575 13.3484L17.3924 13.4563ZM18.3482 11.3992L18.5129 11.4512V11.4512L18.3482 11.3992ZM18.8899 9.2771L19.0589 9.31242L19.0932 9.14819L18.93 9.10917L18.8899 9.2771ZM11.2531 5.5236L11.3611 5.38892L11.2162 5.27268L11.1109 5.42569L11.2531 5.5236ZM10.4866 4.87431L10.6281 4.97318L10.7158 4.84771L10.6017 4.74565L10.4866 4.87431ZM8.2828 10.7936H8.11014V10.8022L8.111 10.8108L8.2828 10.7936ZM8.28528 10.8184L8.11348 10.8356V10.8356L8.28528 10.8184ZM8.30668 11.9342L8.1968 12.0674L8.46342 12.2874L8.47915 11.9421L8.30668 11.9342ZM6.48148 10.3079L6.30962 10.2913L6.30159 10.3743L6.36167 10.4322L6.48148 10.3079ZM7.10224 7.65594L6.94065 7.59511L7.10224 7.65594ZM9.46085 3.87666L9.58656 3.75831L9.46037 3.62426L9.33469 3.75879L9.46085 3.87666ZM10.175 3.17713L10.0598 3.04849L9.92809 3.16638L10.0491 3.29529L10.175 3.17713ZM11.0879 4.07097L10.9721 4.19905L11.1081 4.32202L11.2227 4.17885L11.0879 4.07097ZM14.2271 1.04917L14.3309 1.18708L14.1952 0.879478L14.2271 1.04917ZM16.0512 1L16.076 0.829138L16.0124 0.819897L15.9583 0.854491L16.0512 1ZM11.849 4.72015L11.7139 4.61257L11.6069 4.7469L11.7407 4.85462L11.849 4.72015ZM17.0727 1.26244L17.0118 1.42403V1.42403L17.0727 1.26244ZM19.698 3.46293L19.8701 3.47717L19.8749 3.41846L19.8429 3.36903L19.698 3.46293ZM19.0802 8.29397L19.0396 8.46179L19.2178 8.50487L19.2501 8.32445L19.0802 8.29397ZM20.5329 5.20311L20.6962 5.14706L20.3613 5.18389L20.5329 5.20311ZM20.0624 8.48203L20.2323 8.5126L20.2324 8.51256L20.0624 8.48203ZM21.0769 8.65849L21.0555 8.82982L21.2487 8.85389L21.2495 8.65924L21.0769 8.65849ZM20.0588 8.50186L19.8889 8.4713L19.8585 8.64065L20.0277 8.67169L20.0588 8.50186ZM21.0294 9.66023L21.2013 9.67579L21.2164 9.50885L21.05 9.48881L21.0294 9.66023ZM19.8683 9.48383L19.8995 9.31402L19.7338 9.28355L19.6993 9.4485L19.8683 9.48383ZM20.3524 12.6436L20.514 12.7044L20.3524 12.6436ZM17.5503 16.7095L17.5223 16.8798L17.6017 16.8929L17.6628 16.8405L17.5503 16.7095ZM16.5094 16.4884L16.3615 16.3994L16.2422 16.5977L16.4662 16.6556L16.5094 16.4884ZM18.1732 14.081L18.3081 14.1888V14.1888L18.1732 14.081ZM19.3017 11.7006L19.1371 11.6485L19.3017 11.7006ZM16.6794 17.5582L16.8271 17.6478L16.9517 17.4424L16.7173 17.3898L16.6794 17.5582ZM15.9961 17.3858L16.0425 17.2196L15.91 17.1825L15.8443 17.3035L15.9961 17.3858ZM15.9398 19.2707L15.9568 19.4425L16.073 19.431L16.1056 19.3189L15.9398 19.2707ZM15.0434 19.3914L14.8833 19.3267L14.7673 19.6138L15.0725 19.5615L15.0434 19.3914ZM15.3016 18.7857L15.4591 18.8563L15.3016 18.7857ZM14.389 18.3766L14.2315 18.306L14.389 18.3766ZM13.8749 19.6507L13.9206 19.8172L14.0073 19.7933L14.0375 19.7087L13.8749 19.6507ZM15.0258 17.0788L15.1783 17.1599L15.2725 16.9827L15.0833 16.916L15.0258 17.0788ZM11.02 15.119L11.1107 14.9721L11.02 15.119ZM9.07708 13.8032L9.17946 13.6642L8.96207 13.5041L8.90793 13.7686L9.07708 13.8032ZM8.87651 14.6294L8.71034 14.5825V14.5825L8.87651 14.6294ZM6.10819 19.1483L5.99583 19.0172L6.10819 19.1483ZM5.18321 20.2656L5.03746 20.173L4.95451 20.3037L5.07529 20.4004L5.18321 20.2656ZM8.41307 22.524L8.32374 22.6717L8.43064 22.7364L8.52547 22.6551L8.41307 22.524ZM12.7143 20.0362L12.7774 20.1969L12.7143 20.0362ZM4.68866 21.1501L4.79586 21.0148L4.62891 20.8825L4.53407 21.0732L4.68866 21.1501ZM7.66298 23.2376L7.78869 23.3559L7.93378 23.2018L7.75366 23.0907L7.66298 23.2376ZM4.40347 21.7626L4.56168 21.8317H4.56168L4.40347 21.7626ZM3.09303 25.7893L2.92547 25.7476H2.92547L3.09303 25.7893ZM2.70908 27.4802L2.54002 27.4452L2.51567 27.5627L2.61732 27.6264L2.70908 27.4802ZM6.75064 29.7999L6.6711 29.9531L6.75064 29.7999ZM7.23434 30.0475L7.15653 30.2016L7.35729 29.9263L7.23434 30.0475ZM6.2585 28.5572L6.09777 28.6203L6.2585 28.5572ZM10.4547 32.575L10.5494 32.7194L10.8331 32.5335L10.5158 32.4135L10.4547 32.575ZM9.78299 32.3118L9.84781 32.1518L9.72616 32.1025L9.64613 32.2066L9.78299 32.3118ZM8.94904 33.3747L8.81421 33.2668L8.39856 33.7865L9.01443 33.5345L8.94904 33.3747ZM7.28916 33.8279L7.31183 33.9991L7.37877 33.9902L7.42193 33.9383L7.28916 33.8279ZM8.83051 31.9091L8.96695 32.0149L9.10247 31.8402L8.90004 31.7511L8.83051 31.9091ZM4.90818 33.5801L4.96901 33.4185H4.96901L4.90818 33.5801ZM2.10725 30.9576L1.93629 30.9334L1.9284 30.9893L1.955 31.039L2.10725 30.9576ZM2.50308 28.5301L2.59394 28.3833L2.37937 28.2505L2.33332 28.4986L2.50308 28.5301ZM6.28995 30.6874L6.36949 30.5342L6.28995 30.6874ZM1.38449 29.1063L1.21783 29.1514L1.55466 29.1355L1.38449 29.1063ZM1.59395 27.9565L1.76347 27.9892L1.78564 27.8745L1.68735 27.8113L1.59395 27.9565ZM1.0953 27.6323L1.19013 27.488L0.876776 27.2821L0.924021 27.654L1.0953 27.6323ZM1.00273 26.3685L0.830116 26.3721L0.831991 26.4614L0.905921 26.5115L1.00273 26.3685ZM1.80872 26.9041L1.71437 27.0487L1.92465 27.1859L1.9775 26.9405L1.80872 26.9041ZM1.75011 21.8758L1.9117 21.9367H1.9117L1.75011 21.8758ZM2.91837 19.6343L3.03583 19.5078L2.88955 19.372L2.77624 19.5363L2.91837 19.6343ZM3.89668 20.5013L4.04986 20.581L4.11345 20.4587L4.0083 20.3696L3.89668 20.5013ZM3.48713 21.3622L3.32891 21.2931H3.32891L3.48713 21.3622ZM2.12256 25.548L1.95501 25.5064L2.12256 25.548ZM3.52995 18.8374L3.39856 18.7254L3.29156 18.8509L3.41204 18.9635L3.52995 18.8374ZM4.4078 19.623L4.29538 19.754L4.44441 19.8819L4.55215 19.7177L4.4078 19.623ZM4.95816 17.4817L5.06268 17.6191L5.07882 17.6068L5.09167 17.5912L4.95816 17.4817ZM6.61035 13.0444L6.78235 13.0594L6.7845 13.0348L6.77967 13.0106L6.61035 13.0444ZM6.4439 11.6426L6.56015 11.5149L6.25427 11.2364L6.27139 11.6497L6.4439 11.6426ZM8.18476 13.1215L8.35528 13.1485L8.3711 13.0488L8.29195 12.9861L8.18476 13.1215ZM7.91408 14.3579L7.74791 14.311V14.311L7.91408 14.3579ZM5.4574 18.389L5.34504 18.2579H5.34504L5.4574 18.389ZM9.42312 12.7027C9.50658 11.9271 9.50386 11.242 9.45475 10.7286L9.111 10.7615C9.15768 11.2494 9.161 11.911 9.07979 12.6657L9.42312 12.7027ZM11.6364 14.1214C10.8369 13.6274 10.0715 13.0928 9.3562 12.5469L9.14671 12.8214C9.86992 13.3733 10.6446 13.9145 11.4549 14.4152L11.6364 14.1214ZM15.5776 16.0289C14.2356 15.5728 12.9027 14.9039 11.6364 14.1214L11.4549 14.4152C12.7375 15.2077 14.0941 15.8894 15.4665 16.3559L15.5776 16.0289ZM17.2575 13.3484C16.6418 14.1181 15.9825 15.0679 15.3732 16.1049L15.6709 16.2799C16.2722 15.2565 16.9222 14.3204 17.5272 13.5641L17.2575 13.3484ZM18.1836 11.3471C17.8941 12.2629 17.5782 12.9476 17.2575 13.3484L17.5272 13.5641C17.8886 13.1124 18.2199 12.3781 18.5129 11.4512L18.1836 11.3471ZM18.7209 9.24178C18.563 9.99755 18.3841 10.713 18.1836 11.3471L18.5129 11.4512C18.7178 10.803 18.8994 10.0759 19.0589 9.31242L18.7209 9.24178ZM11.1451 5.65828C13.0228 7.16453 15.6256 8.6742 18.8497 9.44502L18.93 9.10917C15.764 8.35224 13.2065 6.86919 11.3611 5.38892L11.1451 5.65828ZM9.45553 10.7462C9.46217 9.73581 9.91562 7.77083 11.3953 5.62151L11.1109 5.42569C9.59785 7.62344 9.11738 9.6547 9.11022 10.7439L9.45553 10.7462ZM8.45545 10.7686C8.45545 9.53724 8.98345 7.3279 10.6281 4.97318L10.345 4.77545C8.66572 7.17976 8.11014 9.45692 8.11014 10.7686H8.45545ZM8.45545 10.7936V10.7686H8.11014V10.7936H8.45545ZM8.45708 10.8012L8.4546 10.7764L8.111 10.8108L8.11348 10.8356L8.45708 10.8012ZM8.47915 11.9421C8.49943 11.4973 8.48775 11.108 8.45708 10.8012L8.11348 10.8356C8.14227 11.1235 8.15382 11.4959 8.1342 11.9263L8.47915 11.9421ZM6.36167 10.4322C6.90434 10.9552 7.52136 11.5101 8.1968 12.0674L8.41656 11.801C7.74819 11.2496 7.13779 10.7006 6.60128 10.1836L6.36167 10.4322ZM6.94065 7.59511C6.60305 8.49198 6.39583 9.40019 6.30962 10.2913L6.65333 10.3245C6.7366 9.46381 6.93688 8.58532 7.26382 7.71676L6.94065 7.59511ZM9.33469 3.75879C8.32095 4.84386 7.48079 6.16016 6.94065 7.59511L7.26382 7.71676C7.78726 6.3262 8.60257 5.04824 9.58702 3.99453L9.33469 3.75879ZM10.6017 4.74565C10.2238 4.40742 9.88498 4.07528 9.58656 3.75831L9.33514 3.99501C9.64039 4.31924 9.98626 4.65826 10.3715 5.00297L10.6017 4.74565ZM10.0491 3.29529C10.321 3.58505 10.6291 3.8889 10.9721 4.19905L11.2037 3.9429C10.8675 3.63898 10.5662 3.34174 10.3009 3.05898L10.0491 3.29529ZM14.1952 0.879478C12.7446 1.15179 11.3038 1.93498 10.0598 3.04849L10.2901 3.30578C11.498 2.22459 12.8832 1.4771 14.2589 1.21886L14.1952 0.879478ZM11.2227 4.17885C12.0307 3.16912 13.0518 2.15049 14.3309 1.18708L14.1232 0.911258C12.821 1.89204 11.7791 2.93085 10.9531 3.9631L11.2227 4.17885ZM15.9583 0.854491C14.1106 2.03464 12.7311 3.33576 11.7139 4.61257L11.984 4.82773C12.9773 3.5809 14.3282 2.30535 16.1442 1.14551L15.9583 0.854491ZM17.1335 1.10086C16.7882 0.970864 16.4346 0.881235 16.076 0.829138L16.0264 1.17086C16.361 1.21948 16.6904 1.30303 17.0118 1.42403L17.1335 1.10086ZM19.8429 3.36903C19.1716 2.33313 18.2636 1.52627 17.1335 1.10086L17.0118 1.42403C18.0613 1.81908 18.9146 2.57159 19.5531 3.55683L19.8429 3.36903ZM19.2501 8.32445C19.5529 6.63633 19.7542 4.87699 19.8701 3.47717L19.5259 3.44869C19.4107 4.84073 19.2106 6.58881 18.9102 8.2635L19.2501 8.32445ZM11.7407 4.85462C13.5067 6.27687 15.9743 7.72069 19.0396 8.46179L19.1208 8.12615C16.1136 7.39911 13.6912 5.98206 11.9573 4.58568L11.7407 4.85462ZM20.3613 5.18389C20.2445 6.22646 20.0897 7.3536 19.8925 8.45151L20.2324 8.51256C20.4312 7.40558 20.5871 6.2707 20.7045 5.22233L20.3613 5.18389ZM21.2495 8.65924C21.2548 7.43003 21.0672 6.22795 20.6962 5.14706L20.3696 5.25917C20.727 6.30036 20.9094 7.46372 20.9042 8.65774L21.2495 8.65924ZM20.0277 8.67169C20.3638 8.73334 20.7065 8.78633 21.0555 8.82982L21.0982 8.48716C20.7558 8.4445 20.4197 8.39251 20.09 8.33204L20.0277 8.67169ZM19.8925 8.45147L19.8889 8.4713L20.2288 8.53243L20.2323 8.5126L19.8925 8.45147ZM21.05 9.48881C20.6588 9.44171 20.2752 9.38308 19.8995 9.31402L19.8371 9.65364C20.2197 9.72398 20.6103 9.78368 21.0087 9.83165L21.05 9.48881ZM20.514 12.7044C20.8818 11.7273 21.1086 10.7001 21.2013 9.67579L20.8574 9.64467C20.7674 10.6396 20.5471 11.6362 20.1908 12.5827L20.514 12.7044ZM17.6628 16.8405C18.8719 15.8028 19.8794 14.3903 20.514 12.7044L20.1908 12.5827C19.5761 14.2157 18.6018 15.5795 17.4379 16.5785L17.6628 16.8405ZM16.4662 16.6556C16.8182 16.7466 17.1706 16.822 17.5223 16.8798L17.5784 16.5391C17.2376 16.483 16.8954 16.4099 16.5526 16.3213L16.4662 16.6556ZM18.0384 13.9731C17.4927 14.6553 16.9092 15.4889 16.3615 16.3994L16.6574 16.5774C17.1976 15.6793 17.7725 14.8583 18.3081 14.1888L18.0384 13.9731ZM19.1371 11.6485C18.8374 12.5966 18.477 13.4249 18.0384 13.9731L18.3081 14.1888C18.7874 13.5897 19.1631 12.7119 19.4664 11.7526L19.1371 11.6485ZM19.6993 9.4485C19.5363 10.2281 19.3496 10.9763 19.1371 11.6485L19.4664 11.7526C19.6833 11.0664 19.8727 10.3065 20.0373 9.51916L19.6993 9.4485ZM16.7173 17.3898C16.4919 17.3391 16.2669 17.2823 16.0425 17.2196L15.9496 17.5521C16.1795 17.6164 16.4102 17.6747 16.6416 17.7267L16.7173 17.3898ZM16.1056 19.3189C16.2953 18.6667 16.5394 18.1218 16.8271 17.6478L16.5318 17.4686C16.2277 17.9698 15.9718 18.5427 15.774 19.2225L16.1056 19.3189ZM15.0725 19.5615C15.3675 19.5111 15.6625 19.4716 15.9568 19.4425L15.9228 19.0989C15.6207 19.1288 15.3175 19.1693 15.0142 19.2212L15.0725 19.5615ZM15.144 18.715C15.0524 18.9193 14.9653 19.1234 14.8833 19.3267L15.2034 19.456C15.2838 19.2569 15.3692 19.0568 15.4591 18.8563L15.144 18.715ZM15.8443 17.3035C15.5944 17.764 15.3582 18.2373 15.144 18.715L15.4591 18.8563C15.6694 18.3872 15.9017 17.9218 16.1478 17.4682L15.8443 17.3035ZM14.2315 18.306C14.0421 18.7284 13.8668 19.1593 13.7123 19.5927L14.0375 19.7087C14.1887 19.2848 14.3605 18.8624 14.5466 18.4472L14.2315 18.306ZM14.8734 16.9977C14.6457 17.4257 14.4297 17.8638 14.2315 18.306L14.5466 18.4472C14.7414 18.0127 14.9539 17.5817 15.1783 17.1599L14.8734 16.9977ZM10.9292 15.2659C12.1922 16.0463 13.5581 16.7441 14.9684 17.2416L15.0833 16.916C13.7016 16.4286 12.3581 15.7429 11.1107 14.9721L10.9292 15.2659ZM8.9747 13.9423C9.59599 14.3998 10.2503 14.8463 10.9292 15.2659L11.1107 14.9721C10.4405 14.558 9.794 14.1168 9.17946 13.6642L8.9747 13.9423ZM9.04268 14.6763C9.12266 14.3928 9.19003 14.1124 9.24623 13.8379L8.90793 13.7686C8.85334 14.0353 8.78793 14.3075 8.71034 14.5825L9.04268 14.6763ZM6.22055 19.2794C7.74916 17.9691 8.59732 16.2549 9.04268 14.6763L8.71034 14.5825C8.27757 16.1165 7.4584 17.7635 5.99583 19.0172L6.22055 19.2794ZM5.32896 20.3582C5.61864 19.902 5.91714 19.5394 6.22055 19.2794L5.99583 19.0172C5.65873 19.3061 5.33906 19.6981 5.03746 20.173L5.32896 20.3582ZM8.5024 22.3762C7.31377 21.6576 6.23266 20.8848 5.29113 20.1308L5.07529 20.4004C6.02739 21.1628 7.12087 21.9445 8.32374 22.6717L8.5024 22.3762ZM8.52547 22.6551C9.63196 21.7061 11.0794 20.8632 12.7774 20.1969L12.6512 19.8754C10.9247 20.5529 9.44204 21.414 8.30067 22.3929L8.52547 22.6551ZM12.7774 20.1969C13.1553 20.0486 13.537 19.9226 13.9206 19.8172L13.8292 19.4842C13.4342 19.5927 13.0409 19.7225 12.6512 19.8754L12.7774 20.1969ZM4.58146 21.2855C5.47269 21.9914 6.47725 22.7087 7.5723 23.3845L7.75366 23.0907C6.67106 22.4225 5.67749 21.7131 4.79586 21.0148L4.58146 21.2855ZM4.56168 21.8317C4.65386 21.6208 4.74775 21.419 4.84325 21.227L4.53407 21.0732C4.43583 21.2707 4.33953 21.4777 4.24525 21.6935L4.56168 21.8317ZM3.26058 25.8309C3.62201 24.377 4.05501 22.9913 4.56168 21.8317L4.24525 21.6935C3.7281 22.877 3.28959 24.2829 2.92547 25.7476L3.26058 25.8309ZM2.87815 27.5152C2.99478 26.9524 3.12215 26.3878 3.26058 25.8309L2.92547 25.7476C2.78583 26.3093 2.65747 26.8784 2.54002 27.4452L2.87815 27.5152ZM6.83018 29.6466C5.39272 28.9005 4.01529 28.0959 2.80085 27.3339L2.61732 27.6264C3.83832 28.3925 5.22396 29.202 6.6711 29.9531L6.83018 29.6466ZM7.31215 29.8934C7.15103 29.812 6.99033 29.7297 6.83018 29.6466L6.6711 29.9531C6.83237 30.0368 6.99423 30.1197 7.15653 30.2016L7.31215 29.8934ZM7.35729 29.9263C6.94973 29.5129 6.63115 29.0342 6.41922 28.4941L6.09777 28.6203C6.32771 29.2063 6.67292 29.724 7.1114 30.1687L7.35729 29.9263ZM6.41922 28.4941C5.73243 26.7439 6.29149 24.9462 7.78869 23.3559L7.53728 23.1192C5.98064 24.7726 5.34714 26.7073 6.09777 28.6203L6.41922 28.4941ZM10.5158 32.4135C10.2936 32.3295 10.0708 32.2421 9.84781 32.1518L9.71816 32.4719C9.94351 32.5632 10.1688 32.6515 10.3936 32.7365L10.5158 32.4135ZM9.01443 33.5345C9.53663 33.3208 10.0513 33.0458 10.5494 32.7194L10.3601 32.4306C9.87876 32.7461 9.38353 33.0103 8.88365 33.2149L9.01443 33.5345ZM9.64613 32.2066C9.36789 32.5683 9.08919 32.9231 8.81421 33.2668L9.08387 33.4825C9.36013 33.1371 9.64018 32.7807 9.91984 32.4171L9.64613 32.2066ZM7.42193 33.9383C7.91666 33.3431 8.44131 32.6928 8.96695 32.0149L8.69406 31.8033C8.17102 32.4779 7.64884 33.1251 7.15639 33.7175L7.42193 33.9383ZM4.84736 33.7417C5.63612 34.0386 6.47125 34.1104 7.31183 33.9991L7.26649 33.6567C6.47517 33.7615 5.69818 33.693 4.96901 33.4185L4.84736 33.7417ZM1.955 31.039C2.62338 32.2888 3.59007 33.2684 4.84736 33.7417L4.96901 33.4185C3.80838 32.9816 2.89869 32.0713 2.2595 30.8762L1.955 31.039ZM2.33332 28.4986C2.17739 29.3388 2.04543 30.161 1.93629 30.9334L2.27821 30.9818C2.38671 30.2138 2.51789 29.3965 2.67284 28.5616L2.33332 28.4986ZM6.36949 30.5342C5.03327 29.8406 3.7486 29.0979 2.59394 28.3833L2.41222 28.6769C3.57305 29.3953 4.86531 30.1425 6.21041 30.8407L6.36949 30.5342ZM8.90004 31.7511C8.0453 31.3751 7.19531 30.9628 6.36949 30.5342L6.21041 30.8407C7.04175 31.2722 7.89847 31.6877 8.76098 32.0672L8.90004 31.7511ZM1.55466 29.1355C1.61936 28.7581 1.68892 28.375 1.76347 27.9892L1.42443 27.9237C1.3494 28.312 1.2794 28.6975 1.21431 29.0771L1.55466 29.1355ZM0.924021 27.654C0.989213 28.1673 1.08726 28.6691 1.21783 29.1514L1.55115 29.0612C1.42494 28.595 1.32988 28.1089 1.26658 27.6105L0.924021 27.654ZM1.68735 27.8113C1.51775 27.7022 1.35191 27.5943 1.19013 27.488L1.00047 27.7766C1.1632 27.8835 1.32999 27.992 1.50055 28.1017L1.68735 27.8113ZM0.905921 26.5115C1.16252 26.6852 1.43254 26.8649 1.71437 27.0487L1.90306 26.7595C1.62287 26.5767 1.3545 26.3982 1.09955 26.2255L0.905921 26.5115ZM1.58852 21.815C1.04612 23.256 0.797909 24.8387 0.830116 26.3721L1.17535 26.3649C1.144 24.8721 1.38593 23.3334 1.9117 21.9367L1.58852 21.815ZM2.77624 19.5363C2.30365 20.2215 1.90092 20.9851 1.58852 21.815L1.9117 21.9367C2.21423 21.1329 2.60391 20.3944 3.0605 19.7323L2.77624 19.5363ZM4.0083 20.3696C3.66163 20.0759 3.33687 19.7872 3.03583 19.5078L2.80091 19.7609C3.10579 20.0438 3.43444 20.336 3.78506 20.6331L4.0083 20.3696ZM3.64534 21.4313C3.77398 21.1369 3.9087 20.8524 4.04986 20.581L3.7435 20.4217C3.5983 20.7009 3.46026 20.9925 3.32891 21.2931L3.64534 21.4313ZM2.29012 25.5897C2.65934 24.1044 3.10832 22.6603 3.64534 21.4313L3.32891 21.2931C2.78142 22.546 2.32691 24.0103 1.95501 25.5064L2.29012 25.5897ZM1.9775 26.9405C2.07479 26.4887 2.17894 26.0369 2.29012 25.5897L1.95501 25.5064C1.84288 25.9574 1.73792 26.4128 1.63993 26.8678L1.9775 26.9405ZM3.41204 18.9635C3.68585 19.2195 3.9808 19.4842 4.29538 19.754L4.52022 19.492C4.20935 19.2253 3.91806 18.9639 3.64786 18.7113L3.41204 18.9635ZM4.85364 17.3443C4.33287 17.7404 3.84375 18.2032 3.39856 18.7254L3.66134 18.9494C4.09091 18.4455 4.5621 17.9998 5.06268 17.6191L4.85364 17.3443ZM6.43835 13.0293C6.24074 15.288 5.59451 16.4333 4.82465 17.3722L5.09167 17.5912C5.90451 16.5999 6.57853 15.3891 6.78235 13.0594L6.43835 13.0293ZM6.27139 11.6497C6.2916 12.1376 6.34869 12.6154 6.44103 13.0782L6.77967 13.0106C6.69091 12.5658 6.63589 12.1057 6.61641 11.6354L6.27139 11.6497ZM8.29195 12.9861C7.66937 12.4931 7.08867 11.9962 6.56015 11.5149L6.32766 11.7702C6.86173 12.2566 7.44846 12.7586 8.07757 13.2568L8.29195 12.9861ZM8.08025 14.4048C8.20197 13.9733 8.29154 13.5504 8.35528 13.1485L8.01423 13.0944C7.95244 13.484 7.86567 13.8936 7.74791 14.311L8.08025 14.4048ZM5.56976 18.5201C6.90718 17.3737 7.67135 15.8541 8.08025 14.4048L7.74791 14.311C7.35161 15.7157 6.61645 17.1681 5.34504 18.2579L5.56976 18.5201ZM4.55215 19.7177C4.86544 19.2403 5.204 18.8336 5.56976 18.5201L5.34504 18.2579C4.94817 18.5981 4.58917 19.032 4.26345 19.5283L4.55215 19.7177Z" fill="#D91550"/>
<mask id="path-3-inside-1_936_2703" fill="white">
<path fill-rule="evenodd" clip-rule="evenodd" d="M17.5 30.3172C22.1271 28.5015 24.1864 25.0001 25.1864 22.0001C23.1864 20.5001 18.1272 19.1844 13.5001 21C8.87306 22.8157 6.06743 25.8204 7.1542 28.59C8.24098 31.3596 12.873 32.1328 17.5 30.3172ZM12.4406 25.0059C13.8653 24.2839 14.8274 23.3183 14.5897 22.8492C14.352 22.3802 13.0044 22.5853 11.5797 23.3074C10.1551 24.0294 9.19286 24.995 9.43059 25.4641C9.66832 25.9331 11.0159 25.728 12.4406 25.0059Z"/>
</mask>
<path fill-rule="evenodd" clip-rule="evenodd" d="M17.5 30.3172C22.1271 28.5015 24.1864 25.0001 25.1864 22.0001C23.1864 20.5001 18.1272 19.1844 13.5001 21C8.87306 22.8157 6.06743 25.8204 7.1542 28.59C8.24098 31.3596 12.873 32.1328 17.5 30.3172ZM12.4406 25.0059C13.8653 24.2839 14.8274 23.3183 14.5897 22.8492C14.352 22.3802 13.0044 22.5853 11.5797 23.3074C10.1551 24.0294 9.19286 24.995 9.43059 25.4641C9.66832 25.9331 11.0159 25.728 12.4406 25.0059Z" fill="#D91550"/>
<path d="M25.1864 22.0001L26.1351 22.3163L26.363 21.6325L25.7864 21.2001L25.1864 22.0001ZM13.5001 21L13.8654 21.9309L13.5001 21ZM7.1542 28.59L6.22331 28.9553L7.1542 28.59ZM14.5897 22.8492L13.6977 23.3013L14.5897 22.8492ZM12.4406 25.0059L11.9885 24.114L11.9885 24.114L12.4406 25.0059ZM11.5797 23.3074L12.0318 24.1993V24.1993L11.5797 23.3074ZM9.43059 25.4641L8.53861 25.9161L9.43059 25.4641ZM24.2377 21.6838C23.2966 24.5072 21.3975 27.7136 17.1348 29.3863L17.8653 31.2481C22.8567 29.2894 25.0762 25.493 26.1351 22.3163L24.2377 21.6838ZM13.8654 21.9309C15.9893 21.0975 18.2328 20.9764 20.1914 21.2472C22.1699 21.5209 23.7595 22.1799 24.5864 22.8001L25.7864 21.2001C24.6134 20.3203 22.6733 19.5714 20.4654 19.2661C18.2377 18.958 15.6381 19.0869 13.1349 20.0691L13.8654 21.9309ZM8.0851 28.2247C7.7227 27.3012 7.94639 26.2427 8.94124 25.091C9.94478 23.9292 11.645 22.8022 13.8654 21.9309L13.1349 20.0691C10.7282 21.0135 8.71207 22.2967 7.42771 23.7836C6.13467 25.2806 5.49893 27.1093 6.22331 28.9553L8.0851 28.2247ZM17.1348 29.3863C14.9605 30.2394 12.8295 30.4647 11.1642 30.1867C9.47551 29.9048 8.44933 29.1529 8.0851 28.2247L6.22331 28.9553C6.94585 30.7966 8.77905 31.8162 10.8348 32.1594C12.914 32.5065 15.4125 32.2106 17.8653 31.2481L17.1348 29.3863ZM13.6977 23.3013C13.5568 23.0233 13.6682 22.8176 13.6499 22.8564C13.6385 22.8806 13.5819 22.9746 13.4302 23.1268C13.1347 23.4234 12.6326 23.7875 11.9885 24.114L12.8927 25.8979C13.6733 25.5023 14.3646 25.0226 14.8469 24.5386C15.0841 24.3005 15.3125 24.0201 15.4592 23.7087C15.599 23.412 15.7414 22.9097 15.4817 22.3971L13.6977 23.3013ZM12.0318 24.1993C12.6758 23.8729 13.2664 23.6832 13.6803 23.6202C13.8928 23.5879 14.002 23.5978 14.0283 23.603C14.0704 23.6111 13.8386 23.5793 13.6977 23.3013L15.4817 22.3971C15.2219 21.8846 14.7326 21.7025 14.4106 21.6398C14.0728 21.5741 13.7115 21.5925 13.3793 21.643C12.7038 21.7458 11.9082 22.0198 11.1276 22.4154L12.0318 24.1993ZM10.3226 25.012C10.4635 25.29 10.3521 25.4957 10.3704 25.4569C10.3818 25.4327 10.4384 25.3387 10.5901 25.1865C10.8856 24.8899 11.3877 24.5258 12.0318 24.1993L11.1276 22.4154C10.347 22.811 9.65574 23.2907 9.1734 23.7747C8.93623 24.0127 8.70778 24.2932 8.56112 24.6046C8.42131 24.9013 8.27886 25.4036 8.53861 25.9161L10.3226 25.012ZM11.9885 24.114C11.3445 24.4404 10.7539 24.6301 10.34 24.693C10.1275 24.7254 10.0183 24.7154 9.992 24.7103C9.94993 24.7021 10.1817 24.734 10.3226 25.012L8.53861 25.9161C8.79837 26.4286 9.28771 26.6107 9.60971 26.6735C9.9475 26.7392 10.3088 26.7208 10.641 26.6703C11.3165 26.5675 12.1121 26.2935 12.8927 25.8979L11.9885 24.114Z" fill="#D91550" mask="url(#path-3-inside-1_936_2703)"/>
</svg>
