<svg width="15" height="31" viewBox="0 0 15 31" fill="none" xmlns="http://www.w3.org/2000/svg">
<path fill-rule="evenodd" clip-rule="evenodd" d="M3.57488 4.84131C1.60053 4.84131 0 6.44184 0 8.41619V26.8643C0 28.8387 1.60052 30.4392 3.57488 30.4392H10.7246C12.699 30.4392 14.2995 28.8387 14.2995 26.8643V8.41619C14.2995 6.44184 12.699 4.84131 10.7246 4.84131H3.57488ZM1.6932 12.7884C1.6932 12.6005 1.70745 12.4158 1.73493 12.2356C2.44576 11.6987 3.40891 11.4872 4.6926 11.8868C6.84686 12.5574 6.54377 13.7306 6.2071 15.0339C5.89877 16.2274 5.56227 17.53 7.05933 18.6554C8.52314 19.7558 10.0129 18.5696 11.2663 17.5715L11.2663 17.5715C11.7544 17.1828 12.2067 16.8227 12.6076 16.6373V24.2802C12.6076 26.2895 10.9788 27.9184 8.96947 27.9184H5.33134C3.32205 27.9184 1.6932 26.2895 1.6932 24.2802V12.7884Z" fill="#D91550"/>
<rect x="2.68115" y="2" width="8.9372" height="4.4686" fill="#D91550"/>
<rect x="1" width="12" height="2" rx="1" fill="#D91550"/>
</svg>
