<svg width="20" height="30" viewBox="0 0 20 30" fill="none" xmlns="http://www.w3.org/2000/svg">
<g opacity="0.5">
<path fill-rule="evenodd" clip-rule="evenodd" d="M9.79159 29.4928C15.6554 29.4928 19.7012 26.3522 19.7012 18.4035C19.7012 10.4547 15.6554 0 9.79159 0C3.92777 0 0 10.4547 0 18.4035C0 26.3522 3.92777 29.4928 9.79159 29.4928ZM7.28148 2.78825C7.45281 2.61062 7.4477 2.32773 7.27007 2.1564C7.09244 1.98507 6.80955 1.99017 6.63822 2.16781C3.61211 5.3052 2.46661 8.75352 2.27081 10.0809C2.2348 10.3251 2.40353 10.5522 2.64768 10.5882C2.89184 10.6242 3.11895 10.4555 3.15497 10.2113C3.3245 9.062 4.38924 5.78685 7.28148 2.78825Z" fill="#27191E"/>
</g>
</svg>
