<svg width="25" height="33" viewBox="0 0 25 33" fill="none" xmlns="http://www.w3.org/2000/svg">
<g opacity="0.5">
<path fill-rule="evenodd" clip-rule="evenodd" d="M10.9471 6.13902C11.4539 7.62512 11.3013 9.17688 10.6457 10.476C13.2765 11.0685 15.2416 13.4193 15.2416 16.2291C15.2416 17.3918 14.9051 18.4759 14.3243 19.3893C16.2435 19.7324 17.9234 21.0803 18.5973 23.0563C19.585 25.9521 18.183 31.5819 16.4857 32.6353C13.8383 33.2219 9.0984 29.5286 8.11077 26.6328C7.57387 25.0586 7.78599 23.4098 8.55665 22.0741C5.67226 21.689 3.44739 19.2189 3.44739 16.2291C3.44739 15.1903 3.716 14.2142 4.18756 13.3665C2.44407 12.8975 0.958343 11.5967 0.331738 9.75945C-0.668016 6.82811 0.75118 1.12916 2.46926 0.0627925C5.14921 -0.530953 9.9473 3.20768 10.9471 6.13902ZM5.93487 10.7613C7.5236 10.7613 8.81151 9.47338 8.81151 7.88465C8.81151 6.29593 7.5236 5.00801 5.93487 5.00801C4.34615 5.00801 3.05823 6.29593 3.05823 7.88465C3.05823 9.47338 4.34615 10.7613 5.93487 10.7613ZM12.2664 16.2273C12.2664 17.816 10.9785 19.1039 9.38975 19.1039C7.80102 19.1039 6.5131 17.816 6.5131 16.2273C6.5131 14.6385 7.80102 13.3506 9.38975 13.3506C10.9785 13.3506 12.2664 14.6385 12.2664 16.2273ZM13.4145 27.4472C15.0033 27.4472 16.2912 26.1593 16.2912 24.5705C16.2912 22.9818 15.0033 21.6939 13.4145 21.6939C11.8258 21.6939 10.5379 22.9818 10.5379 24.5705C10.5379 26.1593 11.8258 27.4472 13.4145 27.4472Z" fill="#27191E"/>
<path fill-rule="evenodd" clip-rule="evenodd" d="M19.1668 7.51465C18.9927 8.23749 19.1327 8.96249 19.499 9.54615C18.2861 9.94045 17.4635 11.1333 17.5861 12.4566C17.6369 13.0044 17.8428 13.5005 18.1565 13.9055C17.2684 14.1516 16.537 14.8595 16.306 15.8189C15.9672 17.2261 16.8734 19.817 17.7189 20.2392C18.9917 20.4 21.0633 18.4532 21.4022 17.0459C21.5864 16.2808 21.4145 15.5133 20.993 14.9177C22.3336 14.6093 23.2726 13.3493 23.1422 11.9418C23.0968 11.4517 22.9272 11.0031 22.6675 10.624C23.4679 10.3268 24.1106 9.64929 24.3255 8.7568C24.6685 7.33225 23.7512 4.70952 22.8953 4.28217C21.6069 4.11945 19.5098 6.0901 19.1668 7.51465ZM20.7985 8.9972C21.3961 9.52827 22.3111 9.47436 22.8421 8.87678C23.3732 8.2792 23.3193 7.36425 22.7217 6.83317C22.1241 6.3021 21.2092 6.35602 20.6781 6.95359C20.147 7.55117 20.201 8.46613 20.7985 8.9972ZM21.351 13.1686C20.8199 13.7662 19.905 13.8201 19.3074 13.2891C18.7098 12.758 18.6559 11.843 19.187 11.2455C19.718 10.6479 20.633 10.594 21.2306 11.125C21.8282 11.6561 21.8821 12.5711 21.351 13.1686ZM17.9491 17.6267C18.5467 18.1578 19.4617 18.1039 19.9927 17.5063C20.5238 16.9087 20.4699 15.9938 19.8723 15.4627C19.2747 14.9316 18.3598 14.9856 17.8287 15.5831C17.2977 16.1807 17.3516 17.0957 17.9491 17.6267Z" fill="#27191E"/>
</g>
</svg>
