<svg width="33" height="35" viewBox="0 0 33 35" fill="none" xmlns="http://www.w3.org/2000/svg">
<g opacity="0.5">
<path fill-rule="evenodd" clip-rule="evenodd" d="M12.1152 28.6217C12.1152 28.6217 -2.17565 23.1495 1.65111 12.4089C2.51322 9.98927 3.81871 7.76531 8.75178 6.00392C12.0203 4.83687 15.6564 5.24447 18.7138 5.58719C21.4244 5.89104 23.6801 6.14391 24.8217 5.2033C24.8881 5.62127 24.9235 6.09566 24.9138 6.60439C24.8555 9.65968 23.1688 13.9534 16.7865 14.7008C16.2587 14.7627 15.6988 14.8002 15.105 14.8108C14.9779 14.8131 14.8533 14.8171 14.7311 14.8228C13.9486 14.8591 13.267 14.9646 12.6757 15.1288C12.6291 15.1418 12.583 15.1551 12.5376 15.1688C11.418 15.141 9.40915 14.7513 7.92396 13.3163C7.71213 13.1116 7.3745 13.1174 7.16982 13.3292C6.96515 13.5411 6.97095 13.8787 7.18278 14.0834C8.30694 15.1696 9.66677 15.739 10.843 16.0134C9.8701 16.7722 9.40094 17.8303 9.25774 19.0141C9.25402 19.0449 9.25052 19.0757 9.24724 19.1066C9.19413 19.1133 9.13909 19.1193 9.08207 19.1246C8.24509 19.2016 7.02713 19.1044 5.38001 18.5692C5.09988 18.4782 4.799 18.6315 4.70797 18.9116C4.61695 19.1917 4.77026 19.4926 5.05039 19.5836C6.8052 20.1538 8.17021 20.2797 9.1799 20.1867C9.1915 20.1857 9.20306 20.1846 9.21457 20.1834C9.24761 21.0558 9.41244 21.9624 9.64812 22.8439C9.24989 22.8902 8.7165 22.9008 8.01273 22.84C7.71927 22.8146 7.46082 23.032 7.43546 23.3254C7.41011 23.6189 7.62745 23.8773 7.92091 23.9027C8.76602 23.9757 9.43436 23.9579 9.95862 23.8783C10.0191 24.0608 10.0817 24.241 10.1458 24.4184C10.9953 26.7678 12.1152 28.6217 12.1152 28.6217ZM12.1152 28.6217C14.8558 28.0879 19.8884 27.5008 18.0946 29.4223C16.5792 31.0455 14.246 30.1167 12.8072 29.1457C14.2357 30.5638 14.9335 33.5041 13.7968 34.0259C12.7504 34.5063 12.2397 30.6232 12.1152 28.6217ZM21.2664 7.97603C21.2664 8.85969 20.5501 9.57603 19.6664 9.57603C18.7828 9.57603 18.0664 8.85969 18.0664 7.97603C18.0664 7.09238 18.7828 6.37603 19.6664 6.37603C20.5501 6.37603 21.2664 7.09238 21.2664 7.97603Z" fill="#27191E"/>
<path d="M1.65111 12.4089L1.39991 12.3194H1.39991L1.65111 12.4089ZM8.75178 6.00392L8.84145 6.25506L8.75178 6.00392ZM18.7138 5.58719L18.6841 5.8522L18.7138 5.58719ZM24.8217 5.2033L25.085 5.16145L25.0119 4.70104L24.6521 4.99749L24.8217 5.2033ZM24.9138 6.60439L25.1804 6.60948L24.9138 6.60439ZM16.7865 14.7008L16.7555 14.436L16.7865 14.7008ZM15.105 14.8108L15.1002 14.5442H15.1002L15.105 14.8108ZM14.7311 14.8228L14.7187 14.5564H14.7187L14.7311 14.8228ZM12.6757 15.1288L12.6043 14.8719H12.6043L12.6757 15.1288ZM12.5376 15.1688L12.531 15.4353L12.5735 15.4364L12.6143 15.4241L12.5376 15.1688ZM7.92396 13.3163L8.10926 13.1245L8.10925 13.1245L7.92396 13.3163ZM7.18278 14.0834L6.99748 14.2752H6.99748L7.18278 14.0834ZM10.843 16.0134L11.007 16.2237L11.447 15.8805L10.9036 15.7537L10.843 16.0134ZM9.25774 19.0141L8.993 18.9821L8.993 18.9821L9.25774 19.0141ZM9.24724 19.1066L9.28069 19.3711L9.49013 19.3446L9.51242 19.1347L9.24724 19.1066ZM9.08207 19.1246L9.05762 18.859H9.05761L9.08207 19.1246ZM5.38001 18.5692L5.46242 18.3156L5.38001 18.5692ZM4.70797 18.9116L4.96159 18.994H4.96159L4.70797 18.9116ZM5.05039 19.5836L4.96799 19.8373L5.05039 19.5836ZM9.1799 20.1867L9.15545 19.9212H9.15545L9.1799 20.1867ZM9.21457 20.1834L9.48105 20.1733L9.47034 19.8905L9.1886 19.918L9.21457 20.1834ZM9.64812 22.8439L9.67892 23.1087L9.98545 23.0731L9.90574 22.775L9.64812 22.8439ZM8.01273 22.84L8.03568 22.5743H8.03568L8.01273 22.84ZM7.43546 23.3254L7.16979 23.3025L7.43546 23.3254ZM7.92091 23.9027L7.89795 24.1684H7.89795L7.92091 23.9027ZM9.95862 23.8783L10.2117 23.7945L10.141 23.581L9.91862 23.6147L9.95862 23.8783ZM10.1458 24.4184L10.3966 24.3277L10.1458 24.4184ZM18.0946 29.4223L17.8996 29.2403L18.0946 29.4223ZM12.8072 29.1457L12.9564 28.9247L12.6193 29.3349L12.8072 29.1457ZM13.7968 34.0259L13.9081 34.2682L13.7968 34.0259ZM24.8217 5.2033L24.6521 4.99749L24.0994 5.45291L24.8153 5.46989L24.8217 5.2033ZM27.1422 1.02911C27.1583 0.882718 27.0526 0.751006 26.9062 0.734927C26.7598 0.718849 26.6281 0.824491 26.612 0.970887L27.1422 1.02911ZM12.8072 29.1457L12.658 29.3667L12.9951 28.9564L12.8072 29.1457ZM12.1152 28.6217L12.2411 28.3866L11.9417 28.8241L12.1152 28.6217ZM17.0495 14.6566C17.0251 14.5114 16.8875 14.4134 16.7423 14.4379C16.5971 14.4623 16.4991 14.5999 16.5236 14.7451L17.0495 14.6566ZM16.5269 16.5516C16.4934 16.6951 16.5825 16.8385 16.7259 16.8719C16.8694 16.9054 17.0128 16.8163 17.0462 16.6729L16.5269 16.5516ZM14.9856 14.7431C14.9415 14.6025 14.7919 14.5243 14.6514 14.5683C14.5108 14.6123 14.4326 14.7619 14.4766 14.9025L14.9856 14.7431ZM13.7278 16.755C13.5856 16.7931 13.5011 16.9393 13.5392 17.0815C13.5773 17.2238 13.7235 17.3082 13.8658 17.2701L13.7278 16.755ZM32.765 1.02994C32.7815 0.88359 32.6763 0.751552 32.5299 0.735019C32.3836 0.718486 32.2516 0.82372 32.235 0.970065L32.765 1.02994ZM10.2017 16.1046C10.3489 16.1042 10.468 15.9845 10.4676 15.8372C10.4672 15.69 10.3475 15.5709 10.2003 15.5713L10.2017 16.1046ZM6.93693 14.4761C6.83643 14.3684 6.66768 14.3626 6.56003 14.4631C6.45237 14.5636 6.44657 14.7324 6.54708 14.84L6.93693 14.4761ZM7.97667 20.4443C8.11821 20.4036 8.19997 20.2558 8.15927 20.1143C8.11857 19.9727 7.97084 19.891 7.8293 19.9317L7.97667 20.4443ZM5.36072 19.7199C5.22535 19.6619 5.06859 19.7246 5.01059 19.86C4.95258 19.9953 5.0153 20.1521 5.15068 20.2101L5.36072 19.7199ZM9.17251 24.1916C9.30727 24.1322 9.36834 23.9748 9.30892 23.8401C9.2495 23.7053 9.09209 23.6442 8.95734 23.7036L9.17251 24.1916ZM7.73287 23.9439C7.58559 23.9439 7.4662 24.0632 7.4662 24.2105C7.4662 24.3578 7.58559 24.4772 7.73287 24.4772V23.9439ZM1.39991 12.3194C-0.566229 17.8378 2.1389 21.9987 5.27241 24.7436C6.83988 26.1167 8.52549 27.1474 9.81683 27.8342C10.4631 28.178 11.0121 28.4364 11.4002 28.6092C11.5943 28.6956 11.7482 28.7606 11.8541 28.8042C11.9071 28.826 11.948 28.8424 11.976 28.8535C11.99 28.859 12.0007 28.8633 12.008 28.8661C12.0117 28.8675 12.0145 28.8686 12.0165 28.8694C12.0175 28.8698 12.0183 28.8701 12.0188 28.8703C12.0191 28.8704 12.0194 28.8705 12.0195 28.8706C12.0197 28.8706 12.0199 28.8707 12.1152 28.6217C12.2106 28.3726 12.2106 28.3726 12.2106 28.3726C12.2105 28.3726 12.2104 28.3726 12.2103 28.3725C12.21 28.3724 12.2094 28.3722 12.2087 28.3719C12.2072 28.3713 12.2049 28.3704 12.2017 28.3692C12.1953 28.3667 12.1856 28.3629 12.1727 28.3578C12.1468 28.3475 12.1079 28.3319 12.0572 28.311C11.9556 28.2692 11.8063 28.2061 11.6171 28.1219C11.2386 27.9535 10.701 27.7005 10.0673 27.3634C8.79868 26.6886 7.15074 25.68 5.62384 24.3424C2.56861 21.6661 0.0416926 17.7206 1.90231 12.4984L1.39991 12.3194ZM8.66211 5.75279C6.16967 6.64273 4.57091 7.65759 3.48382 8.77349C2.39514 9.89104 1.83712 11.0923 1.39991 12.3194L1.90231 12.4984C2.32721 11.3059 2.85299 10.1854 3.86585 9.14565C4.8803 8.10431 6.40083 7.1265 8.84145 6.25506L8.66211 5.75279ZM18.7435 5.32219C15.6977 4.98076 11.9985 4.56151 8.66211 5.75279L8.84145 6.25506C12.0422 5.11223 15.6151 5.50817 18.6841 5.8522L18.7435 5.32219ZM24.6521 4.99749C24.1542 5.40771 23.3833 5.57913 22.3519 5.59528C21.3271 5.61134 20.1042 5.47472 18.7435 5.32219L18.6841 5.8522C20.034 6.00352 21.2942 6.14525 22.3603 6.12855C23.4198 6.11195 24.3475 5.9395 24.9912 5.4091L24.6521 4.99749ZM25.1804 6.60948C25.1904 6.08552 25.154 5.59541 25.085 5.16145L24.5583 5.24515C24.6222 5.64713 24.6566 6.10581 24.6472 6.5993L25.1804 6.60948ZM16.8176 14.9657C20.0691 14.5849 22.1544 13.295 23.4307 11.6836C24.7022 10.0783 25.1504 8.17998 25.1804 6.60948L24.6472 6.5993C24.6188 8.0841 24.1945 9.86029 23.0126 11.3525C21.8355 12.8386 19.8863 14.0693 16.7555 14.436L16.8176 14.9657ZM15.1097 15.0775C15.7118 15.0667 16.2805 15.0286 16.8176 14.9657L16.7555 14.436C16.2369 14.4967 15.6858 14.5338 15.1002 14.5442L15.1097 15.0775ZM14.7435 15.0891C14.863 15.0836 14.9851 15.0797 15.1097 15.0775L15.1002 14.5442C14.9706 14.5465 14.8435 14.5506 14.7187 14.5564L14.7435 15.0891ZM12.747 15.3858C13.316 15.2278 13.9775 15.1248 14.7435 15.0891L14.7187 14.5564C13.9198 14.5935 13.218 14.7015 12.6043 14.8719L12.747 15.3858ZM12.6143 15.4241C12.658 15.411 12.7022 15.3982 12.747 15.3858L12.6043 14.8719C12.5559 14.8853 12.5081 14.8992 12.4608 14.9134L12.6143 15.4241ZM7.73867 13.5081C9.28941 15.0064 11.3737 15.4067 12.531 15.4353L12.5442 14.9022C11.4624 14.8754 9.52888 14.4962 8.10926 13.1245L7.73867 13.5081ZM7.3616 13.5145C7.46393 13.4086 7.63275 13.4057 7.73867 13.5081L8.10925 13.1245C7.79152 12.8175 7.28506 12.8262 6.97805 13.144L7.3616 13.5145ZM7.36807 13.8916C7.26216 13.7893 7.25926 13.6205 7.3616 13.5145L6.97805 13.144C6.67104 13.4617 6.67974 13.9681 6.99748 14.2752L7.36807 13.8916ZM10.9036 15.7537C9.76022 15.487 8.44847 14.9355 7.36807 13.8916L6.99748 14.2752C8.16541 15.4036 9.57331 15.991 10.7824 16.2731L10.9036 15.7537ZM9.52247 19.0461C9.65939 17.9143 10.1032 16.9286 11.007 16.2237L10.679 15.8031C9.63699 16.6158 9.14248 17.7463 8.993 18.9821L9.52247 19.0461ZM9.51242 19.1347C9.51556 19.1051 9.51892 19.0756 9.52247 19.0461L8.993 18.9821C8.98913 19.0141 8.98548 19.0462 8.98207 19.0784L9.51242 19.1347ZM9.10653 19.3901C9.16651 19.3846 9.22455 19.3782 9.28069 19.3711L9.21379 18.842C9.16371 18.8483 9.11166 18.854 9.05762 18.859L9.10653 19.3901ZM5.29761 18.8228C6.97165 19.3667 8.22637 19.4712 9.10653 19.3901L9.05761 18.859C8.2638 18.9321 7.0826 18.842 5.46242 18.3156L5.29761 18.8228ZM4.96159 18.994C5.0071 18.8539 5.15754 18.7773 5.29761 18.8228L5.46242 18.3156C5.04222 18.179 4.59089 18.409 4.45436 18.8292L4.96159 18.994ZM5.1328 19.33C4.99273 19.2845 4.91608 19.1341 4.96159 18.994L4.45436 18.8292C4.31782 19.2494 4.54778 19.7007 4.96799 19.8373L5.1328 19.33ZM9.15545 19.9212C8.18893 20.0102 6.86068 19.8915 5.1328 19.33L4.96799 19.8373C6.74971 20.4162 8.15148 20.5492 9.20436 20.4523L9.15545 19.9212ZM9.1886 19.918C9.17757 19.9191 9.16652 19.9202 9.15545 19.9212L9.20436 20.4523C9.21648 20.4512 9.22854 20.45 9.24055 20.4488L9.1886 19.918ZM9.90574 22.775C9.67354 21.9066 9.51313 21.0203 9.48105 20.1733L8.9481 20.1935C8.9821 21.0912 9.15134 22.0183 9.3905 22.9127L9.90574 22.775ZM7.98977 23.1056C8.70705 23.1676 9.25894 23.1576 9.67892 23.1087L9.61732 22.579C9.24085 22.6227 8.72596 22.6339 8.03568 22.5743L7.98977 23.1056ZM7.70114 23.3484C7.71382 23.2016 7.84304 23.093 7.98977 23.1056L8.03568 22.5743C7.59549 22.5363 7.20782 22.8623 7.16979 23.3025L7.70114 23.3484ZM7.94386 23.637C7.79713 23.6243 7.68846 23.4951 7.70114 23.3484L7.16979 23.3025C7.13175 23.7426 7.45776 24.1303 7.89795 24.1684L7.94386 23.637ZM9.91862 23.6147C9.42066 23.6902 8.77432 23.7088 7.94386 23.637L7.89795 24.1684C8.75771 24.2426 9.44806 24.2255 9.99862 24.142L9.91862 23.6147ZM10.3966 24.3277C10.3332 24.1524 10.2714 23.9745 10.2117 23.7945L9.70549 23.9622C9.76674 24.1471 9.83013 24.3295 9.89504 24.509L10.3966 24.3277ZM12.1152 28.6217C12.3435 28.4838 12.3435 28.4838 12.3435 28.4838C12.3435 28.4838 12.3435 28.4838 12.3435 28.4838C12.3435 28.4838 12.3434 28.4837 12.3434 28.4836C12.3433 28.4835 12.3431 28.4832 12.3429 28.4828C12.3424 28.4821 12.3417 28.4809 12.3407 28.4792C12.3387 28.4759 12.3357 28.4708 12.3317 28.464C12.3236 28.4505 12.3115 28.43 12.2957 28.4029C12.2641 28.3489 12.2178 28.2686 12.1595 28.1647C12.0427 27.9569 11.8779 27.6549 11.6866 27.2799C11.3039 26.5294 10.8165 25.489 10.3966 24.3277L9.89504 24.509C10.3246 25.6971 10.822 26.7584 11.2115 27.5222C11.4064 27.9044 11.5747 28.2127 11.6945 28.4259C11.7544 28.5325 11.8022 28.6154 11.8352 28.6719C11.8516 28.7001 11.8644 28.7218 11.8732 28.7365C11.8776 28.7439 11.8809 28.7495 11.8832 28.7533C11.8844 28.7553 11.8853 28.7567 11.8859 28.7578C11.8862 28.7583 11.8865 28.7587 11.8866 28.759C11.8867 28.7591 11.8868 28.7593 11.8868 28.7594C11.8869 28.7594 11.8869 28.7594 11.8869 28.7595C11.8869 28.7595 11.887 28.7595 12.1152 28.6217ZM18.2895 29.6043C18.5256 29.3514 18.6859 29.1034 18.7279 28.8595C18.7498 28.7319 18.7393 28.6052 18.6899 28.4867C18.6412 28.3696 18.5612 28.2759 18.4675 28.2021C18.2868 28.0596 18.035 27.975 17.7648 27.9221C17.4887 27.868 17.1632 27.8415 16.8105 27.8346C15.405 27.8074 13.4393 28.0921 12.0642 28.3599L12.1662 28.8834C13.5316 28.6175 15.4526 28.3417 16.8001 28.3679C17.1357 28.3744 17.4276 28.3995 17.6623 28.4455C17.9031 28.4927 18.0558 28.5566 18.1374 28.6209C18.1749 28.6505 18.1906 28.6748 18.1975 28.6916C18.2039 28.7069 18.209 28.7299 18.2023 28.7691C18.1868 28.8588 18.112 29.0128 17.8996 29.2403L18.2895 29.6043ZM12.658 29.3667C13.3952 29.8642 14.3752 30.3612 15.3805 30.5202C16.395 30.6807 17.4556 30.4975 18.2895 29.6043L17.8996 29.2403C17.2182 29.9703 16.3545 30.1343 15.4639 29.9934C14.5641 29.8511 13.6581 29.3982 12.9564 28.9247L12.658 29.3667ZM13.9081 34.2682C14.2994 34.0886 14.5031 33.7117 14.5844 33.2935C14.6657 32.875 14.6346 32.3755 14.5246 31.8657C14.3049 30.8474 13.7524 29.7083 12.9951 28.9564L12.6193 29.3349C13.2905 30.0012 13.8011 31.0413 14.0033 31.9782C14.1042 32.4459 14.1237 32.8679 14.0608 33.1918C13.9979 33.5159 13.8625 33.7023 13.6855 33.7836L13.9081 34.2682ZM11.8491 28.6382C11.9118 29.6463 12.0719 31.1342 12.3508 32.3158C12.4891 32.9019 12.6624 33.4383 12.8815 33.803C12.9906 33.9844 13.1262 34.1495 13.2988 34.2463C13.4871 34.3519 13.6994 34.3641 13.9081 34.2682L13.6855 33.7836C13.6326 33.8078 13.6 33.8037 13.5596 33.7811C13.5035 33.7496 13.4266 33.6746 13.3387 33.5283C13.1639 33.2374 13.0055 32.768 12.8698 32.1932C12.6007 31.053 12.4432 29.5986 12.3814 28.6051L11.8491 28.6382ZM19.6664 9.8427C20.6974 9.8427 21.5331 9.00696 21.5331 7.97603H20.9998C20.9998 8.71241 20.4028 9.30936 19.6664 9.30936V9.8427ZM17.7998 7.97603C17.7998 9.00696 18.6355 9.8427 19.6664 9.8427V9.30936C18.93 9.30936 18.3331 8.71241 18.3331 7.97603H17.7998ZM19.6664 6.10936C18.6355 6.10936 17.7998 6.9451 17.7998 7.97603H18.3331C18.3331 7.23965 18.93 6.6427 19.6664 6.6427V6.10936ZM21.5331 7.97603C21.5331 6.9451 20.6974 6.10936 19.6664 6.10936V6.6427C20.4028 6.6427 20.9998 7.23965 20.9998 7.97603H21.5331ZM24.9912 5.4091C25.2787 5.17222 25.7444 4.77998 26.1739 4.09017C26.6032 3.40059 26.9887 2.4264 27.1422 1.02911L26.612 0.970887C26.4665 2.29573 26.1046 3.19224 25.7211 3.8083C25.3377 4.42413 24.9252 4.77247 24.6521 4.99749L24.9912 5.4091ZM12.9564 28.9247C12.7001 28.7517 12.474 28.578 12.2887 28.4192L11.9417 28.8241C12.1432 28.9968 12.3855 29.1828 12.658 29.3667L12.9564 28.9247ZM12.9951 28.9564C12.7651 28.7282 12.5128 28.5321 12.2411 28.3866L11.9893 28.8567C12.2071 28.9734 12.4187 29.1357 12.6193 29.3349L12.9951 28.9564ZM16.5236 14.7451C16.5843 15.1062 16.664 15.9641 16.5269 16.5516L17.0462 16.6729C17.2081 15.9794 17.1133 15.036 17.0495 14.6566L16.5236 14.7451ZM14.4766 14.9025C14.5601 15.1691 14.616 15.5849 14.5237 15.957C14.4358 16.3111 14.2176 16.6238 13.7278 16.755L13.8658 17.2701C14.5719 17.0811 14.9143 16.5971 15.0413 16.0855C15.1638 15.5919 15.0889 15.0729 14.9856 14.7431L14.4766 14.9025ZM24.8153 5.46989C26.1183 5.50078 27.9775 5.32518 29.5716 4.68766C31.1659 4.05002 32.5511 2.92318 32.765 1.02994L32.235 0.970065C32.0526 2.58519 30.879 3.59036 29.3735 4.19246C27.8678 4.79467 26.086 4.96653 24.828 4.9367L24.8153 5.46989ZM10.2003 15.5713C9.10867 15.5741 7.73543 15.3314 6.93693 14.4761L6.54708 14.84C7.50433 15.8654 9.07509 16.1076 10.2017 16.1046L10.2003 15.5713ZM7.8293 19.9317C7.18917 20.1157 6.34582 20.142 5.36072 19.7199L5.15068 20.2101C6.25322 20.6825 7.22312 20.6609 7.97667 20.4443L7.8293 19.9317ZM8.95734 23.7036C8.65317 23.8378 8.24586 23.9439 7.73287 23.9439V24.4772C8.32102 24.4772 8.80153 24.3552 9.17251 24.1916L8.95734 23.7036Z" fill="#27191E"/>
</g>
</svg>
